<mxfile host="Electron" modified="2024-03-31T19:19:38.819Z" agent="Mozilla/5.0 (Windows NT 10.0; Win64; x64) AppleWebKit/537.36 (KHTML, like Gecko) draw.io/21.6.1 Chrome/112.0.5615.204 Electron/24.6.1 Safari/537.36" etag="AfWTEb_HUoInyPjCBj3J" version="21.6.1" type="device">
  <diagram name="Test1" id="1sgSdVJEwcIP3duE8hfh">
    <mxGraphModel dx="1134" dy="662" grid="1" gridSize="10" guides="1" tooltips="1" connect="1" arrows="1" fold="1" page="1" pageScale="1" pageWidth="827" pageHeight="1169" math="0" shadow="0">
      <root>
        <mxCell id="0" />
        <mxCell id="1" parent="0" />
        <mxCell id="1cZIUDrJ0Ts1eYSyoHEo-4" style="edgeStyle=none;rounded=0;orthogonalLoop=1;jettySize=auto;html=1;" edge="1" parent="1" source="1cZIUDrJ0Ts1eYSyoHEo-1" target="1cZIUDrJ0Ts1eYSyoHEo-3">
          <mxGeometry relative="1" as="geometry" />
        </mxCell>
        <mxCell id="1cZIUDrJ0Ts1eYSyoHEo-1" value="A=1" style="ellipse;whiteSpace=wrap;html=1;aspect=fixed;" vertex="1" parent="1">
          <mxGeometry x="140" y="160" width="80" height="80" as="geometry" />
        </mxCell>
        <mxCell id="1cZIUDrJ0Ts1eYSyoHEo-7" style="edgeStyle=none;rounded=0;orthogonalLoop=1;jettySize=auto;html=1;entryX=-0.067;entryY=0.5;entryDx=0;entryDy=0;entryPerimeter=0;" edge="1" parent="1" source="1cZIUDrJ0Ts1eYSyoHEo-2" target="1cZIUDrJ0Ts1eYSyoHEo-3">
          <mxGeometry relative="1" as="geometry" />
        </mxCell>
        <mxCell id="1cZIUDrJ0Ts1eYSyoHEo-2" value="B=1" style="ellipse;whiteSpace=wrap;html=1;aspect=fixed;" vertex="1" parent="1">
          <mxGeometry x="140" y="320" width="80" height="80" as="geometry" />
        </mxCell>
        <mxCell id="1cZIUDrJ0Ts1eYSyoHEo-9" style="edgeStyle=none;rounded=0;orthogonalLoop=1;jettySize=auto;html=1;" edge="1" parent="1" source="1cZIUDrJ0Ts1eYSyoHEo-3" target="1cZIUDrJ0Ts1eYSyoHEo-8">
          <mxGeometry relative="1" as="geometry" />
        </mxCell>
        <mxCell id="1cZIUDrJ0Ts1eYSyoHEo-3" value="C=1" style="shape=or;whiteSpace=wrap;html=1;" vertex="1" parent="1">
          <mxGeometry x="290" y="230" width="60" height="80" as="geometry" />
        </mxCell>
        <mxCell id="1cZIUDrJ0Ts1eYSyoHEo-8" value="D=1" style="ellipse;whiteSpace=wrap;html=1;aspect=fixed;" vertex="1" parent="1">
          <mxGeometry x="440" y="120" width="80" height="80" as="geometry" />
        </mxCell>
      </root>
    </mxGraphModel>
  </diagram>
</mxfile>
